# xmcd CD database file
#
# Track frame offsets:
#	150
#	30657
#	64382
#	100049
#	112328
#	167280
#	196070
#	235127
#	264779
#	313863
#	327513
#
# Disc length: 4591 seconds
#
# Revision: 1
# Processed by: cddbd v1.5.1PL2 Copyright (c) Steve Scherf et al.
# Submitted via: CDex 1.51
#
DISCID=9111ed0b
DTITLE=Sonny Rollins - The Very Best Of Sonny Rollins
DYEAR=2005
DGENRE=Jazz
TTITLE0=01-St. Thomas
TTITLE1=02-Without A Song
TTITLE2=03-Solitude
TTITLE3=04-On A Slow Boat To China
TTITLE4=05-Tenor Madness
TTITLE5=06-There's no Business Like Show Business
TTITLE6=07-Valse Hot
TTITLE7=08-The Surrey With The Fringe On Top
TTITLE8=09-More Than You Know
TTITLE9=10-Will You Still Be Mine
TTITLE10=11-It Could Happen To You
EXTD=YEAR: 2005
EXTT0=
EXTT1=
EXTT2=
EXTT3=
EXTT4=
EXTT5=
EXTT6=
EXTT7=
EXTT8=
EXTT9=
EXTT10=
PLAYORDER=
